HIERARCHY
ROOT Hips
{
    OFFSET 0.000000 0.000000 0.000000
    CHANNELS 6 Xposition Yposition Zposition Zrotation Xrotation Yrotation
    JOINT Spine
    {
        OFFSET -0.000000 14.517291 0.000000
        CHANNELS 3 Zrotation Xrotation Yrotation
        JOINT Spine1
        {
            OFFSET -0.000000 37.558300 0.000000
            CHANNELS 3 Zrotation Xrotation Yrotation
            JOINT Neck
            {
                OFFSET -0.000000 37.404057 3.400369
                CHANNELS 3 Zrotation Xrotation Yrotation
                JOINT Head
                {
                    OFFSET -0.000000 24.785618 -3.540803
                    CHANNELS 3 Zrotation Xrotation Yrotation
                    End Site
                    {
                        OFFSET -0.000000 35.408028 0.000000
                    }
                }
            }
            JOINT LeftShoulder
            {
                OFFSET 6.992933 33.973492 -0.192664
                CHANNELS 3 Zrotation Xrotation Yrotation
                JOINT LeftArm
                {
                    OFFSET 21.527611 0.000000 0.000000
                    CHANNELS 3 Zrotation Xrotation Yrotation
                    JOINT LeftForeArm
                    {
                        OFFSET 56.353916 0.000000 0.000000
                        CHANNELS 3 Zrotation Xrotation Yrotation
                        JOINT LeftHand
                        {
                            OFFSET 47.774071 0.000000 0.000000
                            CHANNELS 3 Zrotation Xrotation Yrotation
                            End Site
                            {
                                OFFSET 26.556021 0.000000 0.000000
                            }
                        }
                    }
                }
            }
            JOINT RightShoulder
            {
                OFFSET -7.065357 33.973492 -0.192664
                CHANNELS 3 Zrotation Xrotation Yrotation
                JOINT RightArm
                {
                    OFFSET -21.527611 0.000000 0.000000
                    CHANNELS 3 Zrotation Xrotation Yrotation
                    JOINT RightForeArm
                    {
                        OFFSET -56.353916 0.000000 0.000000
                        CHANNELS 3 Zrotation Xrotation Yrotation
                        JOINT RightHand
                        {
                            OFFSET -47.774071 0.000000 0.000000
                            CHANNELS 3 Zrotation Xrotation Yrotation
                            End Site
                            {
                                OFFSET -26.556021 0.000000 0.000000
                            }
                        }
                    }
                }
            }
        }
    }
    JOINT LeftUpLeg
    {
        OFFSET 17.704014 0.000000 0.000000
        CHANNELS 3 Zrotation Xrotation Yrotation
        JOINT LeftLeg
        {
            OFFSET -0.000000 -81.181816 0.000000
            CHANNELS 3 Zrotation Xrotation Yrotation
            JOINT LeftFoot
            {
                OFFSET -0.000000 -62.821102 0.000000
                CHANNELS 3 Zrotation Xrotation Yrotation
                JOINT LeftToeBase
                {
                    OFFSET -0.000000 -11.507608 26.556021
                    CHANNELS 3 Zrotation Xrotation Yrotation
                    End Site
                    {
                        OFFSET -0.000000 0.000000 7.081605
                    }
                }
            }
        }
    }
    JOINT RightUpLeg
    {
        OFFSET -17.704014 0.000000 0.000000
        CHANNELS 3 Zrotation Xrotation Yrotation
        JOINT RightLeg
        {
            OFFSET -0.000000 -81.181816 0.000000
            CHANNELS 3 Zrotation Xrotation Yrotation
            JOINT RightFoot
            {
                OFFSET -0.000000 -62.821102 0.000000
                CHANNELS 3 Zrotation Xrotation Yrotation
                JOINT RightToeBase
                {
                    OFFSET -0.000000 -11.507608 26.556021
                    CHANNELS 3 Zrotation Xrotation Yrotation
                    End Site
                    {
                        OFFSET -0.000000 0.000000 7.081605
                    }
                }
            }
        }
    }
}
MOTION
Frames:    12
Frame Time:    0.008333
1.457908    156.762726    -52.169273    -8.219036    4.547462    27.263308    2.667750    -2.512118    -5.633061    -9.337782    -2.840878    -2.126899    16.349953    2.532023    3.339949    2.703067    -5.207282    1.906374    14.564313    -4.080045    -16.835081    -22.509195    -26.097237    -34.737247    -14.951251    -37.818298    -98.256226    -31.248760    -43.012928    -36.774174    -14.407674    -0.910842    -9.484110    19.490395    19.992399    9.241419    13.777490    15.219977    -0.808613    9.495409    16.384148    13.331445    10.160239    -3.139879    3.657041    -19.006765    48.597267    -18.748238    -5.632080    -24.530630    28.777605    0.000000    0.000000    0.000000    8.448077    -31.481606    4.431609    15.086248    32.762104    -12.513391    -12.525212    -5.046744    -16.834068    0.000000    0.000000    0.000000    
1.681009    156.809998    -52.011181    -8.070020    4.540368    27.291849    2.596199    -2.498997    -5.619452    -9.377829    -2.805348    -2.119798    16.277264    2.598080    3.317092    2.732192    -5.200491    1.906889    14.529927    -4.088274    -16.853844    -22.443445    -26.041128    -34.726574    -14.942514    -37.824768    -98.155312    -31.322008    -42.961212    -36.806786    -14.458269    -0.891227    -9.441311    19.471668    20.002153    9.272014    13.754440    15.320813    -0.837989    9.380765    16.499769    13.645623    10.480826    -3.208567    3.351667    -19.219410    49.102509    -18.371384    -4.707757    -24.896580    29.861809    0.000000    0.000000    0.000000    8.274030    -31.365856    4.517766    15.149817    32.831570    -12.519780    -12.556571    -5.132637    -17.012060    0.000000    0.000000    0.000000    
1.897415    156.852814    -51.852173    -7.928148    4.528658    27.344778    2.527568    -2.510080    -5.622863    -9.423579    -2.728681    -2.115344    16.212246    2.575124    3.328063    2.779193    -5.107364    1.929925    14.496740    -4.104405    -16.855055    -22.462717    -26.189840    -34.756474    -15.077075    -37.552773    -98.080109    -31.269518    -42.834827    -36.761650    -14.508533    -0.953550    -9.338067    19.484423    19.907997    9.208186    13.799439    15.254902    -0.735902    9.372520    16.399670    13.368751    10.841997    -3.236774    3.013969    -19.479280    49.457317    -17.662197    -3.936440    -25.226517    30.400822    0.000000    0.000000    0.000000    8.106675    -31.242937    4.560552    15.182238    32.894962    -12.541114    -12.623891    -5.229729    -17.147993    0.000000    0.000000    0.000000    
2.105187    156.901382    -51.699753    -7.795299    4.518122    27.393814    2.460368    -2.524023    -5.616029    -9.474425    -2.648323    -2.107259    16.183121    2.554180    3.318193    2.777142    -5.014799    1.917747    14.486656    -4.123373    -16.849247    -22.430046    -26.170424    -34.778545    -15.134829    -37.500671    -98.039581    -31.208639    -42.848473    -36.742214    -14.558661    -0.937273    -9.355054    19.498589    19.996887    9.309692    13.701565    15.251750    -0.744840    9.432068    16.423048    13.609783    11.228681    -3.284693    2.696288    -19.672058    49.789707    -17.049562    -3.612390    -25.578232    30.794315    0.000000    0.000000    0.000000    7.943361    -31.119732    4.660455    15.260660    33.004227    -12.644164    -12.614952    -5.458109    -17.284164    0.000000    0.000000    0.000000    
2.308742    156.947067    -51.550877    -7.658635    4.487813    27.440552    2.386830    -2.505196    -5.603109    -9.498746    -2.602688    -2.099053    16.109636    2.561949    3.285648    2.816507    -4.940845    1.899951    14.438474    -4.135496    -16.877117    -22.367195    -26.154928    -34.754871    -15.166696    -37.430058    -98.002106    -31.206224    -42.804691    -36.735126    -14.613755    -0.941428    -9.319402    19.493639    19.884533    9.349312    13.773441    15.312613    -0.754542    9.356325    16.473372    13.571699    11.640747    -3.304518    2.394732    -19.699438    50.040943    -16.624973    -3.023273    -25.571146    31.058903    0.000000    0.000000    0.000000    7.735153    -30.979374    4.886297    15.527848    32.990269    -12.872012    -12.662386    -5.544743    -17.473221    0.000000    0.000000    0.000000    
2.508296    156.991867    -51.400852    -7.532366    4.437917    27.507351    2.330909    -2.475620    -5.604151    -9.512047    -2.554522    -2.095163    15.922942    2.488966    3.246871    3.016798    -4.772158    1.905858    14.369009    -4.139020    -16.871330    -22.336838    -26.207977    -34.768425    -15.220883    -37.263069    -97.943031    -31.263311    -42.661850    -36.766579    -14.668421    -0.904163    -9.333874    19.486071    19.904953    9.442879    13.716164    15.254864    -0.661332    9.297660    16.396852    13.556024    12.111089    -3.319206    2.098988    -19.663578    50.247929    -16.361761    -2.408812    -25.650866    31.294413    0.000000    0.000000    0.000000    7.573265    -30.817793    4.909265    15.589309    33.016232    -12.983282    -12.651413    -5.671997    -17.541023    0.000000    0.000000    0.000000    
2.696956    157.046890    -51.253296    -7.414760    4.392275    27.594276    2.259532    -2.465631    -5.614272    -9.506655    -2.492869    -2.092698    15.814327    2.457299    3.228496    3.098144    -4.650145    1.907934    14.301998    -4.141850    -16.861624    -22.187475    -25.975067    -34.737190    -15.102374    -37.460709    -97.905830    -31.346481    -42.693974    -36.833549    -14.720679    -0.876677    -9.333621    19.466190    20.006468    9.454853    13.642838    15.226061    -0.427382    9.332166    16.338058    13.469670    12.593828    -3.329021    1.814906    -19.573925    50.362820    -16.192997    -2.132088    -25.857668    31.350456    0.000000    0.000000    0.000000    7.440580    -30.652462    4.756647    15.465149    33.070305    -12.911633    -12.595722    -5.802971    -17.578466    0.000000    0.000000    0.000000    
2.888578    157.105988    -51.129402    -7.292244    4.343159    27.682491    2.222712    -2.430964    -5.618118    -9.567869    -2.463166    -2.092368    15.754187    2.458055    3.196820    3.154188    -4.559813    1.890690    14.264047    -4.138268    -16.889042    -22.136642    -25.962912    -34.731022    -15.072449    -37.422565    -97.857567    -31.407475    -42.600815    -36.851139    -14.726910    -0.866054    -9.306887    19.444855    19.878647    9.480288    13.714835    15.251005    -0.384335    9.297241    16.355837    13.490652    13.100890    -3.326396    1.463254    -19.531290    50.366756    -15.940743    -1.984413    -25.991877    31.062489    0.000000    0.000000    0.000000    7.267616    -30.483133    4.601699    15.413610    33.099274    -12.918077    -12.557298    -5.932793    -17.563951    0.000000    0.000000    0.000000    
3.093931    157.166931    -51.002312    -7.164749    4.278375    27.749922    2.187458    -2.399792    -5.599382    -9.622687    -2.415519    -2.082862    15.694640    2.437154    3.174336    3.217870    -4.450808    1.880608    14.230480    -4.141880    -16.930010    -22.181129    -26.147882    -34.734158    -15.180736    -37.097065    -97.815048    -31.297888    -42.428589    -36.788860    -14.755807    -0.877929    -9.282707    19.453131    19.799593    9.493976    13.751299    15.313869    -0.323928    9.267738    16.406088    13.464999    13.599629    -3.291332    1.164349    -19.369205    50.323639    -16.074757    -1.651528    -26.055845    31.021818    0.000000    0.000000    0.000000    7.077735    -30.252586    4.449676    15.387926    33.104954    -12.884275    -12.520892    -6.158500    -17.561060    0.000000    0.000000    0.000000    
3.295100    157.239822    -50.878101    -7.044177    4.213378    27.815720    2.171697    -2.375000    -5.578475    -9.716105    -2.367250    -2.073567    15.668617    2.412420    3.158275    3.270251    -4.347200    1.870457    14.221996    -4.136312    -16.970516    -22.122044    -26.141378    -34.682579    -15.172834    -37.036369    -97.795593    -31.345613    -42.339687    -36.825428    -14.745088    -0.862024    -9.278336    19.457882    19.793447    9.525852    13.727893    15.344751    -0.227328    9.276896    16.426510    13.463521    14.126671    -3.255872    0.858788    -19.039675    50.221283    -16.701696    -1.167325    -25.944515    30.873774    0.000000    0.000000    0.000000    6.898268    -30.049812    4.299470    15.367760    33.097755    -12.863089    -12.434542    -6.280301    -17.579590    0.000000    0.000000    0.000000    
3.485034    157.315750    -50.775665    -6.918975    4.157201    27.895266    2.146774    -2.320090    -5.578483    -9.821467    -2.356994    -2.074342    15.683310    2.395991    3.150238    3.284899    -4.269527    1.858331    14.244764    -4.132434    -16.980358    -22.025854    -25.960180    -34.630272    -15.065964    -37.209351    -97.803886    -31.471016    -42.359146    -36.889439    -14.714177    -0.874150    -9.261807    19.442238    19.793915    9.561657    13.763637    15.392074    -0.175901    9.220057    16.468969    13.562539    14.644835    -3.256662    0.558498    -18.879187    50.067036    -17.017986    -0.929299    -26.026682    31.014122    0.000000    0.000000    0.000000    6.693829    -29.860680    4.118293    15.366004    33.086426    -12.876055    -12.357472    -6.391980    -17.580605    0.000000    0.000000    0.000000    
3.687230    157.389755    -50.682163    -6.774945    4.096478    27.962391    2.110257    -2.247895    -5.568921    -9.912642    -2.354064    -2.072126    15.663499    2.369225    3.127715    3.310581    -4.171933    1.835502    14.235832    -4.124268    -16.974440    -21.978739    -25.877169    -34.626228    -15.035196    -37.261475    -97.809990    -31.594982    -42.337120    -36.937584    -14.715641    -0.851497    -9.258945    19.441565    19.778912    9.613264    13.777595    15.446226    -0.082609    9.309029    16.517151    13.497942    15.153359    -3.174083    0.279886    -18.706573    49.815868    -17.222197    -0.380716    -26.082222    31.106255    0.000000    0.000000    0.000000    6.468174    -29.661072    3.938001    15.368327    33.079659    -12.869239    -12.268605    -6.511160    -17.586866    0.000000    0.000000    0.000000    
